<?xml version="1.0" encoding="utf-8"?>
<!-- Generator: Adobe Illustrator 26.4.1, SVG Export Plug-In . SVG Version: 6.00 Build 0)  -->
<svg version="1.1" id="Layer_2_00000181793945202531343470000015947882160560134564_"
	 xmlns="http://www.w3.org/2000/svg" xmlns:xlink="http://www.w3.org/1999/xlink" x="0px" y="0px" viewBox="0 0 174.6 73.3"
	 style="enable-background:new 0 0 174.6 73.3;" xml:space="preserve">
<style type="text/css">
	.st0{fill:#FAD02C;}
	.st1{fill:#FFFFFF;}
</style>
<g id="Layer_1-2">
	<g>
		<circle class="st0" cx="138" cy="36.6" r="36.6"/>
		<path class="st1" d="M0,53.9v-8h4.9c2,0,3-1,3-3V15.9h9V43c0,2.9-0.4,5.1-1.2,6.6s-2.1,2.7-3.8,3.3s-4,1-7,1L0,53.9L0,53.9z"/>
		<path class="st1" d="M29.7,52.1c-2.9-1.8-5-4.2-6.4-7.2c-1.4-3-2.1-6.3-2.1-10s0.7-7,2.1-10c1.4-3,3.5-5.4,6.4-7.1
			c2.8-1.8,6.4-2.7,10.5-2.7s7.7,0.9,10.5,2.7c2.8,1.8,5,4.2,6.4,7.1s2.1,6.3,2.1,10s-0.7,7-2.1,10c-1.4,3-3.5,5.4-6.4,7.2
			c-2.8,1.8-6.3,2.7-10.5,2.7S32.6,53.9,29.7,52.1L29.7,52.1z M47.2,43.6c1.7-2.1,2.5-5,2.5-8.7s-0.8-6.5-2.5-8.6
			c-1.7-2.1-4-3.2-7-3.2s-5.3,1.1-7,3.2c-1.7,2.1-2.6,5-2.6,8.6s0.9,6.6,2.6,8.7s4,3.2,7,3.2S45.5,45.7,47.2,43.6z"/>
		<path class="st1" d="M80.9,53.9h-8.9V23.9H61.2v-8h30.4v8H80.8L80.9,53.9L80.9,53.9z"/>
		<path class="st1" d="M103.1,53.5c-2.6-0.9-4.7-2.3-6.5-4.4c-1.8-2.1-2.8-4.8-3-8.1h9.2c1.1,4.2,3.8,6.3,8.2,6.3
			c1.7,0,3.1-0.4,4.2-1.1s1.7-1.8,1.7-3.2c0-0.9-0.4-1.7-1.1-2.3c-0.7-0.6-1.6-1.1-2.7-1.4c-1.1-0.3-2.6-0.7-4.6-1.2
			c-3-0.7-5.4-1.3-7.2-2c-1.8-0.7-3.4-1.8-4.8-3.3c-1.3-1.5-2-3.6-2-6.2s0.6-4.7,1.9-6.4s2.9-3,5.1-3.9c2.1-0.9,4.5-1.3,7.2-1.3
			s5.2,0.5,7.6,1.4c2.3,1,4.2,2.4,5.8,4.3s2.5,4.2,2.9,7h-9.2c-0.5-1.6-1.3-2.9-2.6-3.8s-2.8-1.4-4.7-1.4c-1.4,0-2.6,0.3-3.6,0.9
			c-1,0.6-1.5,1.4-1.5,2.5c0,0.9,0.3,1.6,1,2.1s1.5,1,2.6,1.3c1.1,0.3,2.5,0.7,4.4,1.1c3,0.7,5.4,1.4,7.3,2.1c1.9,0.7,3.6,1.9,5,3.5
			c1.4,1.6,2.1,3.8,2.1,6.5c0,2.5-0.6,4.7-1.8,6.5c-1.2,1.8-2.9,3.2-5.1,4.2c-2.2,1-4.9,1.5-7.9,1.5
			C108.3,54.7,105.7,54.3,103.1,53.5L103.1,53.5z"/>
		<path class="st1" d="M139.4,53.9h-8.9v-38h8.9L139.4,53.9L139.4,53.9z"/>
		<path class="st1" d="M159,47.1v1.4H150v-1.4H159L159,47.1z"/>
		<path class="st1" d="M159,44v1.4H150v-1.7l7.1-3.8H150v-1.4h8.9v1.7l-7.1,3.8H159L159,44z"/>
		<path class="st1" d="M158.5,35.2c-0.4,0.6-1,1.1-1.7,1.4c-0.7,0.3-1.5,0.5-2.3,0.5s-1.6-0.2-2.3-0.5s-1.2-0.8-1.7-1.4
			c-0.4-0.6-0.6-1.4-0.6-2.3c0-1,0.2-1.9,0.8-2.5s1.2-1,2-1.2v1.5c-0.5,0.1-0.9,0.3-1.1,0.7s-0.4,0.9-0.4,1.5c0,0.9,0.3,1.6,0.9,2
			s1.4,0.7,2.4,0.7s1.8-0.2,2.5-0.7c0.6-0.5,0.9-1.2,0.9-2c0-0.6-0.1-1.1-0.4-1.5c-0.3-0.4-0.7-0.6-1.3-0.7v-1.5
			c0.9,0.1,1.6,0.5,2.1,1.2s0.8,1.5,0.8,2.5C159.1,33.8,158.9,34.5,158.5,35.2L158.5,35.2z"/>
		<path class="st1" d="M158.9,28c-0.2,0.2-0.4,0.2-0.6,0.2s-0.4-0.1-0.6-0.2c-0.2-0.2-0.2-0.4-0.2-0.6c0-0.2,0.1-0.4,0.2-0.5
			c0.2-0.2,0.3-0.2,0.6-0.2s0.4,0.1,0.6,0.2c0.2,0.2,0.2,0.3,0.2,0.5C159.1,27.6,159,27.8,158.9,28L158.9,28z"/>
	</g>
</g>
</svg>
